<?xml version="1.0" encoding="utf-8"?>
<svg version="1.1" xmlns="http://www.w3.org/2000/svg" xmlns:xlink="http://www.w3.org/1999/xlink"
	viewBox="2436.9 -843.1 275.5 274.1">
	<g data-name="cloudy icon" transform="translate(84 790)">
		<circle cx="137" cy="137" r="137" fill="#fff" data-name="Ellipse 23"
			transform="translate(2354 -1633)" />
		<path fill="#ffde17"
			d="M2523.4-1361.5a37.2 37.2 0 0 0 8.4-23.4c0-22-19.8-40-44.1-40l-3.4.1h-.5a39.8 39.8 0 0 0-39.4-33.7 40.1 40.1 0 0 0-10 1.2 40 40 0 0 0-35.2-21.2 40.1 40.1 0 0 0-38.5 29 137.4 137.4 0 0 1-7.8-45.8 138.8 138.8 0 0 1 2.8-27.8 137 137 0 0 1 8-25.8 137.8 137.8 0 0 1 12.7-23.4 138.8 138.8 0 0 1 16.8-20.4 138.8 138.8 0 0 1 20.4-16.9 137.8 137.8 0 0 1 23.4-12.7 137 137 0 0 1 25.9-8 138.8 138.8 0 0 1 27.7-2.8 138.8 138.8 0 0 1 27.8 2.8 137 137 0 0 1 25.9 8 137.8 137.8 0 0 1 23.4 12.7 138.8 138.8 0 0 1 20.4 16.9 138.7 138.7 0 0 1 16.8 20.4 137.8 137.8 0 0 1 12.7 23.4 137 137 0 0 1 8 25.8 138.8 138.8 0 0 1 2.8 27.8 137.4 137.4 0 0 1-8 46.1 137.2 137.2 0 0 1-21.9 39.6 138.2 138.2 0 0 1-33.2 30.1 136.8 136.8 0 0 1-41.9 18z"
			data-name="Subtraction 1" />
	</g>
</svg>